<svg width="14" height="14" viewBox="0 0 14 14" fill="none" xmlns="http://www.w3.org/2000/svg">
<path d="M8.46858 14H8.49983C8.65427 14.0008 8.80542 13.9552 8.9336 13.8691C9.06178 13.7829 9.16108 13.6602 9.21858 13.5168L9.19666 13.5085L9.19674 13.5083C9.14098 13.6472 9.04474 13.7661 8.92052 13.8496C8.79624 13.9332 8.64971 13.9774 8.49996 13.9765H8.49983H8.4691M8.46858 14L8.46963 13.9765C8.46945 13.9765 8.46928 13.9765 8.4691 13.9765M8.46858 14V13.9765H8.4691M8.46858 14L8.4691 13.9765M8.4691 13.9765C8.17379 13.963 7.92874 13.7657 7.83168 13.4845L7.83151 13.484C7.82949 13.4786 7.82777 13.4734 7.82603 13.4676L7.82617 13.4676L7.82513 13.4651L5.99283 9.17319C5.96895 9.09378 5.9662 9.0095 5.98487 8.92869C6.00363 8.84748 6.04336 8.77262 6.1001 8.71156L8.4691 13.9765ZM13.7645 0.236807C13.8636 0.336276 13.9317 0.46232 13.9607 0.599697C13.9896 0.737075 13.9781 0.879899 13.9276 1.0109L13.9276 1.01103L9.19683 13.5081L6.10012 8.71153L12.5164 1.82903C12.5165 1.82893 12.5166 1.82883 12.5167 1.82873C12.5393 1.8061 12.5572 1.77926 12.5694 1.74973C12.5817 1.72008 12.588 1.6883 12.588 1.6562C12.588 1.62411 12.5817 1.59233 12.5694 1.56267C12.5571 1.53302 12.5391 1.50608 12.5164 1.48338C12.4937 1.46069 12.4668 1.44268 12.4371 1.4304C12.4075 1.41812 12.3757 1.4118 12.3436 1.4118C12.3115 1.4118 12.2797 1.41812 12.25 1.4304C12.2205 1.44263 12.1937 1.46053 12.1711 1.48308C12.171 1.48318 12.1709 1.48328 12.1708 1.48338L5.28512 7.89935C5.22406 7.9561 5.14918 7.99583 5.06797 8.0146C4.98716 8.03327 4.90288 8.03052 4.82347 8.00664L0.534033 6.17496L0.534076 6.17486L0.531912 6.17417L0.519453 6.17023C0.519391 6.17021 0.519329 6.17019 0.519268 6.17017C0.377472 6.12268 0.25378 6.03259 0.165074 5.91221C0.0763296 5.79177 0.0269276 5.64687 0.0236156 5.4973C0.0203037 5.34773 0.0632432 5.20079 0.14657 5.07653C0.228717 4.95404 0.346169 4.85949 0.483266 4.80538V4.80626L0.491562 4.80312L12.9925 0.0715613L12.9925 0.0715481C13.1235 0.0217588 13.266 0.0108716 13.4029 0.0401973C13.5399 0.0695196 13.6654 0.137796 13.7645 0.236807ZM13.7645 0.236807C13.7645 0.236818 13.7645 0.23683 13.7645 0.236841L13.7811 0.220266L13.7645 0.236807Z" fill="black" stroke="#112211" stroke-width="0.046875"/>
</svg>
